<svg width="24" height="25" viewBox="0 0 24 25" fill="none" xmlns="http://www.w3.org/2000/svg">
<path d="M24 12.5C24 19.1274 18.6274 24.5 12 24.5C5.37258 24.5 0 19.1274 0 12.5C0 5.87258 5.37258 0.5 12 0.5C18.6274 0.5 24 5.87258 24 12.5Z" fill="#E88589"/>
<path d="M17.2664 18.8572C15.7685 19.8935 13.9546 20.5 12 20.5C10.0454 20.5 8.23147 19.8935 6.73356 18.8571C6.07199 18.3994 5.78927 17.5275 6.17392 16.818C6.97131 15.3471 8.61438 14.431 12 14.431C15.3857 14.431 17.0287 15.3472 17.8261 16.818C18.2107 17.5276 17.928 18.3995 17.2664 18.8572Z" fill="white"/>
<path d="M12.0001 11.1207C13.8153 11.1207 15.2868 9.6386 15.2868 7.81034C15.2868 5.98209 13.8153 4.5 12.0001 4.5C10.1848 4.5 8.71332 5.98209 8.71332 7.81034C8.71332 9.6386 10.1848 11.1207 12.0001 11.1207Z" fill="white"/>
</svg>
