<svg width="27" height="21" viewBox="0 0 27 21" fill="none" xmlns="http://www.w3.org/2000/svg">
<path d="M15.75 0H10.5C5.55025 0 3.07538 0 1.53769 1.53769C0 3.07538 0 5.55025 0 10.5C0 15.4497 0 17.9246 1.53769 19.4623C3.07538 21 5.55025 21 10.5 21H15.75C20.6997 21 23.1746 21 24.7123 19.4623C26.25 17.9246 26.25 15.4497 26.25 10.5C26.25 5.55025 26.25 3.07538 24.7123 1.53769C23.1746 0 20.6997 0 15.75 0Z" fill="#E88589"/>
<path d="M14.7656 6.5625C14.7656 6.01884 15.2063 5.57813 15.75 5.57813H22.3125C22.8562 5.57813 23.2969 6.01884 23.2969 6.5625C23.2969 7.10616 22.8562 7.54688 22.3125 7.54688H15.75C15.2063 7.54688 14.7656 7.10616 14.7656 6.5625Z" fill="white"/>
<path d="M16.0781 10.5C16.0781 9.95635 16.5188 9.51563 17.0625 9.51563H22.3125C22.8562 9.51563 23.2969 9.95635 23.2969 10.5C23.2969 11.0437 22.8562 11.4844 22.3125 11.4844H17.0625C16.5188 11.4844 16.0781 11.0437 16.0781 10.5Z" fill="white"/>
<path d="M17.3906 14.4375C17.3906 13.8938 17.8313 13.4531 18.375 13.4531H22.3125C22.8562 13.4531 23.2969 13.8938 23.2969 14.4375C23.2969 14.9812 22.8562 15.4219 22.3125 15.4219H18.375C17.8313 15.4219 17.3906 14.9812 17.3906 14.4375Z" fill="white"/>
<path d="M9.1875 9.1875C10.6372 9.1875 11.8125 8.01225 11.8125 6.5625C11.8125 5.11275 10.6372 3.9375 9.1875 3.9375C7.73775 3.9375 6.5625 5.11275 6.5625 6.5625C6.5625 8.01225 7.73775 9.1875 9.1875 9.1875Z" fill="white"/>
<path d="M9.1875 17.0625C14.4375 17.0625 14.4375 15.8872 14.4375 14.4375C14.4375 12.9878 12.087 11.8125 9.1875 11.8125C6.288 11.8125 3.9375 12.9878 3.9375 14.4375C3.9375 15.8872 3.9375 17.0625 9.1875 17.0625Z" fill="white"/>
</svg>
