<svg width="26" height="22" viewBox="0 0 26 22" fill="none" xmlns="http://www.w3.org/2000/svg">
<path d="M4.22099 8.02774C1.73903 7.02414 0.498047 6.52234 0.498047 5.89879C0.498047 5.27523 1.73903 4.77343 4.22099 3.76983L7.73101 2.35052C10.213 1.34692 11.454 0.845123 12.996 0.845123C14.5381 0.845123 15.7791 1.34692 18.2611 2.35052L21.7711 3.76983C24.2531 4.77343 25.494 5.27523 25.494 5.89879C25.494 6.52234 24.2531 7.02414 21.7711 8.02774L18.2611 9.44705C15.7791 10.4506 14.5381 10.9524 12.996 10.9524C11.454 10.9524 10.213 10.4506 7.73101 9.44705L4.22099 8.02774Z" fill="#E88589"/>
<path fill-rule="evenodd" clip-rule="evenodd" d="M0.498047 5.89879C0.498047 6.52234 1.73903 7.02414 4.22099 8.02774L7.73101 9.44705C10.213 10.4506 11.454 10.9524 12.996 10.9524C14.5381 10.9524 15.7791 10.4506 18.2611 9.44705L21.7711 8.02774C24.2531 7.02414 25.494 6.52234 25.494 5.89879C25.494 5.27523 24.2531 4.77343 21.7711 3.76983L18.2611 2.35052C15.7791 1.34692 14.5381 0.845123 12.996 0.845123C11.454 0.845123 10.213 1.34692 7.73101 2.35052L4.22099 3.76983C1.73903 4.77343 0.498047 5.27523 0.498047 5.89879Z" fill="#E88589"/>
<path d="M6.18892 8.8235C5.55776 8.56829 4.85214 8.56829 4.22099 8.8235C1.73903 9.8271 0.498047 10.3289 0.498047 10.9525C0.498047 11.576 1.73903 12.0778 4.22099 13.0814L7.73101 14.5007C10.213 15.5043 11.454 16.0061 12.996 16.0061C14.5381 16.0061 15.7791 15.5043 18.2611 14.5007L21.7711 13.0814C24.2531 12.0778 25.494 11.576 25.494 10.9525C25.494 10.3289 24.2531 9.8271 21.7711 8.8235C21.1399 8.56829 20.4343 8.56829 19.8032 8.8235L18.2611 9.44706C15.7791 10.4507 14.5381 10.9525 12.996 10.9525C11.454 10.9525 10.213 10.4507 7.73101 9.44706L6.18892 8.8235Z" fill="#FFA9AC"/>
<path d="M6.18892 13.8772C5.55776 13.6219 4.85214 13.6219 4.22099 13.8772C1.73903 14.8808 0.498047 15.3826 0.498047 16.0061C0.498047 16.6297 1.73903 17.1315 4.22099 18.1351L7.73101 19.5544C10.213 20.558 11.454 21.0598 12.996 21.0598C14.5381 21.0598 15.7791 20.558 18.2611 19.5544L21.7711 18.1351C24.2531 17.1315 25.494 16.6297 25.494 16.0061C25.494 15.3826 24.2531 14.8808 21.7711 13.8772C21.1399 13.6219 20.4343 13.6219 19.8032 13.8772L18.2611 14.5007C15.7791 15.5043 14.5381 16.0061 12.996 16.0061C11.454 16.0061 10.213 15.5043 7.73101 14.5007L6.18892 13.8772Z" fill="#FFBEC1"/>
</svg>
