<svg width="61" height="61" viewBox="0 0 61 61" fill="none" xmlns="http://www.w3.org/2000/svg">
<g filter="url(#filter0_d_199_1390)">
<path d="M42.6426 27.2758L39.2105 37.5432C37.8949 41.4791 37.2371 43.447 36.3109 44.1738C34.9728 45.2239 33.1117 45.2919 31.7048 44.3421C30.7309 43.6847 29.9394 41.7697 28.3564 37.9397C27.7707 36.5228 27.4779 35.8143 27.0711 35.1951C26.4859 34.3043 25.7245 33.5429 24.8337 32.9577C24.2144 32.5509 23.506 32.2581 22.089 31.6724C18.2591 30.0894 16.3441 29.2979 15.6867 28.324C14.7369 26.917 14.8049 25.056 15.855 23.7179C16.5818 22.7917 18.5497 22.1339 22.4856 20.8183L32.753 17.3862C39.2349 15.2195 42.4758 14.1362 44.1842 15.8446C45.8926 17.553 44.8092 20.7939 42.6426 27.2758Z" fill="#E88589"/>
</g>
<defs>
<filter id="filter0_d_199_1390" x="11.0181" y="15.003" width="38.0078" height="38.0075" filterUnits="userSpaceOnUse" color-interpolation-filters="sRGB">
<feFlood flood-opacity="0" result="BackgroundImageFix"/>
<feColorMatrix in="SourceAlpha" type="matrix" values="0 0 0 0 0 0 0 0 0 0 0 0 0 0 0 0 0 0 127 0" result="hardAlpha"/>
<feOffset dy="4"/>
<feGaussianBlur stdDeviation="2"/>
<feComposite in2="hardAlpha" operator="out"/>
<feColorMatrix type="matrix" values="0 0 0 0 0.254167 0 0 0 0 0.254167 0 0 0 0 0.254167 0 0 0 0.25 0"/>
<feBlend mode="normal" in2="BackgroundImageFix" result="effect1_dropShadow_199_1390"/>
<feBlend mode="normal" in="SourceGraphic" in2="effect1_dropShadow_199_1390" result="shape"/>
</filter>
</defs>
</svg>
