<svg width="25" height="27" viewBox="0 0 25 27" fill="none" xmlns="http://www.w3.org/2000/svg">
<path fill-rule="evenodd" clip-rule="evenodd" d="M14.567 1.05819C14.0982 0.865845 13.5039 0.865845 12.3154 0.865845C11.1268 0.865845 10.5325 0.865845 10.0637 1.05819C9.43865 1.31465 8.94205 1.80656 8.68315 2.4257C8.56496 2.70834 8.51871 3.03703 8.50061 3.51648C8.47401 4.22107 8.10923 4.87327 7.49278 5.22581C6.87634 5.57834 6.12376 5.56517 5.49445 5.2357C5.06622 5.01149 4.75572 4.88682 4.44952 4.84689C3.77876 4.75942 3.10039 4.93947 2.56365 5.34743C2.1611 5.65341 1.86395 6.16322 1.26966 7.18284C0.675373 8.20246 0.378228 8.71227 0.311997 9.21059C0.22369 9.87501 0.405458 10.547 0.817313 11.0786C1.0053 11.3213 1.2695 11.5253 1.67954 11.7805C2.28234 12.1557 2.67019 12.7948 2.67015 13.5C2.67012 14.2051 2.28227 14.8442 1.67953 15.2193C1.26943 15.4746 1.00519 15.6786 0.817189 15.9213C0.405333 16.453 0.223566 17.1249 0.311873 17.7893C0.378103 18.2877 0.675248 18.7975 1.26954 19.8171C1.86383 20.8367 2.16097 21.3465 2.56353 21.6525C3.10027 22.0605 3.77864 22.2405 4.44939 22.153C4.75558 22.1131 5.06606 21.9884 5.49425 21.7643C6.12361 21.4348 6.87624 21.4216 7.49272 21.7742C8.10921 22.1267 8.47401 22.779 8.50061 23.4836C8.51871 23.963 8.56497 24.2917 8.68315 24.5743C8.94205 25.1935 9.43865 25.6854 10.0637 25.9418C10.5325 26.1342 11.1268 26.1342 12.3154 26.1342C13.5039 26.1342 14.0982 26.1342 14.567 25.9418C15.1921 25.6854 15.6887 25.1935 15.9476 24.5743C16.0658 24.2917 16.112 23.963 16.1301 23.4835C16.1567 22.7789 16.5215 22.1267 17.1379 21.7742C17.7543 21.4215 18.507 21.4347 19.1364 21.7642C19.5646 21.9884 19.875 22.113 20.1812 22.1529C20.852 22.2404 21.5303 22.0604 22.0671 21.6524C22.4696 21.3464 22.7668 20.8366 23.361 19.817C23.9553 18.7974 24.2525 18.2876 24.3187 17.7892C24.407 17.1248 24.2253 16.4529 23.8134 15.9212C23.6254 15.6785 23.3612 15.4745 22.9511 15.2193C22.3483 14.8441 21.9605 14.205 21.9606 13.4999C21.9606 12.7948 22.3484 12.1558 22.9511 11.7807C23.3613 11.5255 23.6255 11.3214 23.8135 11.0787C24.2254 10.5471 24.4071 9.8751 24.3188 9.21067C24.2526 8.71236 23.9555 8.20255 23.3612 7.18293C22.7669 6.1633 22.4697 5.65349 22.0672 5.34752C21.5304 4.93955 20.8521 4.7595 20.1813 4.84698C19.8751 4.88691 19.5647 5.01156 19.1365 5.23574C18.5071 5.56524 17.7545 5.57841 17.138 5.22584C16.5215 4.87328 16.1567 4.22105 16.1301 3.51641C16.112 3.037 16.0657 2.70832 15.9476 2.4257C15.6887 1.80656 15.1921 1.31465 14.567 1.05819Z" fill="#E88589"/>
<path d="M16.141 13.5C16.141 15.5933 14.4279 17.2903 12.3147 17.2903C10.2014 17.2903 8.48828 15.5933 8.48828 13.5C8.48828 11.4067 10.2014 9.70978 12.3147 9.70978C14.4279 9.70978 16.141 11.4067 16.141 13.5Z" fill="#F5F5F5"/>
</svg>
